<svg width="32" height="32" viewBox="0 0 32 32" fill="none" xmlns="http://www.w3.org/2000/svg">
<path d="M3.99903 16C3.99903 15.7348 4.10438 15.4804 4.29192 15.2929C4.47945 15.1054 4.73381 15 4.99902 15L24.5853 15L17.2915 7.70751C17.1986 7.6146 17.1249 7.5043 17.0746 7.3829C17.0243 7.26151 16.9985 7.1314 16.9985 7.00001C16.9985 6.86861 17.0243 6.7385 17.0746 6.61711C17.1249 6.49572 17.1986 6.38542 17.2915 6.2925C17.3844 6.19959 17.4947 6.1259 17.6161 6.07561C17.7375 6.02533 17.8676 5.99945 17.999 5.99945C18.1304 5.99945 18.2605 6.02533 18.3819 6.07561C18.5033 6.1259 18.6136 6.19959 18.7065 6.2925L27.7065 15.2925C27.7995 15.3854 27.8733 15.4957 27.9236 15.6171C27.9739 15.7385 27.9998 15.8686 27.9998 16C27.9998 16.1314 27.9739 16.2615 27.9236 16.3829C27.8733 16.5043 27.7995 16.6146 27.7065 16.7075L18.7065 25.7075C18.5189 25.8951 18.2644 26.0006 17.999 26.0006C17.7337 26.0006 17.4792 25.8951 17.2915 25.7075C17.1039 25.5199 16.9985 25.2654 16.9985 25C16.9985 24.7346 17.1039 24.4801 17.2915 24.2925L24.5853 17L4.99903 17C4.73381 17 4.47945 16.8947 4.29192 16.7071C4.10438 16.5196 3.99903 16.2652 3.99903 16Z" fill="black"/>
</svg>
