<svg width="32" height="32" viewBox="0 0 32 32" fill="none" xmlns="http://www.w3.org/2000/svg">
<path d="M16.2926 10.2926L6.29257 20.2926C6.19966 20.3855 6.12596 20.4958 6.07568 20.6172C6.02539 20.7386 5.99951 20.8687 5.99951 21.0001C5.99951 21.1315 6.02539 21.2616 6.07568 21.383C6.12596 21.5044 6.19966 21.6147 6.29257 21.7076C6.38548 21.8005 6.49578 21.8742 6.61717 21.9245C6.73857 21.9748 6.86867 22.0007 7.00007 22.0007C7.13146 22.0007 7.26157 21.9748 7.38297 21.9245C7.50436 21.8742 7.61466 21.8005 7.70757 21.7076L17.0001 12.4139L26.2926 21.7076C26.4802 21.8953 26.7347 22.0007 27.0001 22.0007C27.2654 22.0007 27.5199 21.8953 27.7076 21.7076C27.8952 21.52 28.0006 21.2655 28.0006 21.0001C28.0006 20.7348 27.8952 20.4803 27.7076 20.2926L17.7076 10.2926C17.6147 10.1996 17.5044 10.1259 17.383 10.0756C17.2616 10.0252 17.1315 9.99933 17.0001 9.99933C16.8687 9.99933 16.7385 10.0252 16.6171 10.0756C16.4957 10.1259 16.3854 10.1996 16.2926 10.2926Z" fill="black"/>
</svg>
