<svg width="32" height="32" viewBox="0 0 32 32" fill="none" xmlns="http://www.w3.org/2000/svg">
<path d="M16.2926 21.7074L6.29257 11.7074C6.19966 11.6145 6.12596 11.5042 6.07568 11.3828C6.02539 11.2614 5.99951 11.1313 5.99951 10.9999C5.99951 10.8685 6.02539 10.7384 6.07568 10.617C6.12596 10.4956 6.19966 10.3853 6.29257 10.2924C6.38548 10.1995 6.49578 10.1258 6.61717 10.0755C6.73857 10.0252 6.86867 9.99933 7.00007 9.99933C7.13146 9.99933 7.26157 10.0252 7.38297 10.0755C7.50436 10.1258 7.61466 10.1995 7.70757 10.2924L17.0001 19.5861L26.2926 10.2924C26.4802 10.1047 26.7347 9.99933 27.0001 9.99933C27.2654 9.99933 27.5199 10.1047 27.7076 10.2924C27.8952 10.48 28.0006 10.7345 28.0006 10.9999C28.0006 11.2652 27.8952 11.5197 27.7076 11.7074L17.7076 21.7074C17.6147 21.8004 17.5044 21.8741 17.383 21.9244C17.2616 21.9748 17.1315 22.0007 17.0001 22.0007C16.8687 22.0007 16.7385 21.9748 16.6171 21.9244C16.4957 21.8741 16.3854 21.8004 16.2926 21.7074Z" fill="black"/>
</svg>
