<svg width="32" height="32" viewBox="0 0 32 32" fill="none" xmlns="http://www.w3.org/2000/svg">
<path d="M25.7081 25.5986C25.801 25.6916 25.8747 25.8019 25.9249 25.9232C25.9752 26.0446 26.0011 26.1747 26.0011 26.3061C26.0011 26.4375 25.9752 26.5676 25.9249 26.689C25.8747 26.8104 25.801 26.9207 25.7081 27.0136C25.6151 27.1066 25.5048 27.1803 25.3835 27.2305C25.2621 27.2808 25.132 27.3067 25.0006 27.3067C24.8692 27.3067 24.7391 27.2808 24.6177 27.2305C24.4963 27.1803 24.386 27.1066 24.2931 27.0136L16.0006 18.7199L7.70806 27.0136C7.52042 27.2013 7.26592 27.3067 7.00056 27.3067C6.73519 27.3067 6.4807 27.2013 6.29306 27.0136C6.10542 26.826 6 26.5715 6 26.3061C6 26.0408 6.10542 25.7863 6.29306 25.5986L14.5868 17.3061L6.29306 9.01364C6.10542 8.826 6 8.57151 6 8.30614C6 8.04078 6.10542 7.78628 6.29306 7.59864C6.4807 7.411 6.73519 7.30559 7.00056 7.30559C7.26592 7.30559 7.52042 7.411 7.70806 7.59864L16.0006 15.8924L24.2931 7.59864C24.4807 7.411 24.7352 7.30559 25.0006 7.30559C25.2659 7.30559 25.5204 7.411 25.7081 7.59864C25.8957 7.78628 26.0011 8.04078 26.0011 8.30614C26.0011 8.57151 25.8957 8.826 25.7081 9.01364L17.4143 17.3061L25.7081 25.5986Z" fill="black"/>
</svg>
